<?xml version="1.0" encoding="iso-8859-1"?>
<!-- Generator: Adobe Illustrator 19.0.0, SVG Export Plug-In . SVG Version: 6.00 Build 0)  -->
<svg version="1.1" id="Capa_1" xmlns="http://www.w3.org/2000/svg" xmlns:xlink="http://www.w3.org/1999/xlink" x="0px" y="0px"
	 viewBox="0 0 480 480" style="enable-background:new 0 0 480 480;" xml:space="preserve">
<g>
	<g>
		<path d="M478.4,235.2L478.4,235.2l-36.8-49.216l7.32-61.064c0.424-3.529-1.531-6.915-4.8-8.312l-56.56-24.12l-24.168-56.576
			c-1.396-3.269-4.783-5.224-8.312-4.8l-61.064,7.328L244.8,1.6c-2.844-2.133-6.756-2.133-9.6,0l-49.216,36.84l-61.056-7.328
			c-3.529-0.424-6.916,1.531-8.312,4.8L92.488,92.488l-56.568,24.12c-3.269,1.397-5.224,4.783-4.8,8.312l7.32,61.064L1.6,235.2
			c-2.133,2.844-2.133,6.755,0,9.6l36.848,49.216L31.12,355.08c-0.424,3.529,1.531,6.916,4.8,8.312l56.56,24.12l24.128,56.576
			c1.396,3.269,4.783,5.224,8.312,4.8l61.064-7.328L235.2,478.4c2.844,2.133,6.756,2.133,9.6,0l49.216-36.8l61.056,7.328
			c3.529,0.424,6.916-1.531,8.312-4.8l24.128-56.576l56.568-24.12c3.269-1.397,5.224-4.783,4.8-8.312l-7.28-61.104l36.8-49.216
			C480.533,241.956,480.533,238.044,478.4,235.2z M101.72,374.064l-54.008-23.04l6.992-58.28c0.247-2.044-0.303-4.104-1.536-5.752
			L17.992,240l35.2-46.992c1.233-1.648,1.783-3.708,1.536-5.752L52.4,168H120v208h-15.608
			C103.647,375.175,102.736,374.515,101.72,374.064z M426.832,287.024c-1.233,1.648-1.783,3.708-1.536,5.752l6.992,58.28
			l-54.008,23.04c-1.899,0.808-3.413,2.318-4.224,4.216l-23.032,54.008l-58.28-7c-2.042-0.243-4.099,0.31-5.744,1.544l-47,35.144
			l-47-35.2c-1.385-1.039-3.069-1.6-4.8-1.6c-0.318-0.001-0.636,0.018-0.952,0.056l-58.28,7L111.792,392H136v-16h200
			c17.673-0.008,31.994-14.341,31.986-32.014c-0.003-6.33-1.883-12.517-5.402-17.778c16.677-5.85,25.454-24.112,19.604-40.788
			c-1.279-3.645-3.207-7.029-5.692-9.988c2.225-1.349,4.279-2.961,6.12-4.8c12.408-12.26,12.529-32.257,0.269-44.666
			c-1.968-1.992-4.192-3.713-6.613-5.118c5.514-6.394,8.259-14.717,7.632-23.136c-1.612-17.079-16.112-30.031-33.264-29.712H272v-64
			c-0.026-22.08-17.92-39.974-40-40h-16c-4.418,0-8,3.582-8,8v32c-0.04,35.33-28.67,63.96-64,64h-8v-16H50.48l-2.768-23.024
			l54.008-23.04c1.899-0.808,3.412-2.318,4.224-4.216l23.032-54.008l58.28,7c2.042,0.249,4.102-0.304,5.744-1.544l47-35.176l47,35.2
			c1.643,1.238,3.702,1.792,5.744,1.544l58.28-7l23.04,54.008c0.81,1.896,2.32,3.406,4.216,4.216L432.288,129l-6.992,58.28
			c-0.247,2.044,0.303,4.104,1.536,5.752L462.008,240L426.832,287.024z M264,184h86.64c8.727-0.233,16.209,6.187,17.304,14.848
			c0.377,4.635-1.323,9.197-4.64,12.456c-2.988,3.015-7.06,4.706-11.304,4.696h-16c-4.418,0-8,3.582-8,8s3.582,8,8,8h22.64
			c8.727-0.233,16.209,6.187,17.304,14.848c0.377,4.635-1.323,9.197-4.64,12.456c-2.988,3.015-7.06,4.706-11.304,4.696h-24
			c-4.418,0-8,3.582-8,8s3.582,8,8,8h16c8.837,0,16,7.163,16,16s-7.163,16-16,16h-24c-4.418,0-8,3.582-8,8s3.582,8,8,8h8
			c8.837,0,16,7.163,16,16s-7.163,16-16,16H136V184h8c44.163-0.049,79.951-35.837,80-80V80h8c13.255,0,24,10.745,24,24v72
			C256,180.418,259.582,184,264,184z"/>
	</g>
</g>
<g>
</g>
<g>
</g>
<g>
</g>
<g>
</g>
<g>
</g>
<g>
</g>
<g>
</g>
<g>
</g>
<g>
</g>
<g>
</g>
<g>
</g>
<g>
</g>
<g>
</g>
<g>
</g>
<g>
</g>
</svg>
